<svg id="visual" viewBox="0 0 960 540" width="960" height="540" xmlns="http://www.w3.org/2000/svg" xmlns:xlink="http://www.w3.org/1999/xlink" version="1.1"><rect x="0" y="0" width="960" height="540" fill="#f7984a"></rect><path d="M0 133L14.5 134.8C29 136.7 58 140.3 87.2 141.7C116.3 143 145.7 142 174.8 150.5C204 159 233 177 262 181.5C291 186 320 177 349 166.3C378 155.7 407 143.3 436.2 144.2C465.3 145 494.7 159 523.8 168.2C553 177.3 582 181.7 611 176.3C640 171 669 156 698 145.2C727 134.3 756 127.7 785.2 133.5C814.3 139.3 843.7 157.7 872.8 168C902 178.3 931 180.7 945.5 181.8L960 183L960 541L945.5 541C931 541 902 541 872.8 541C843.7 541 814.3 541 785.2 541C756 541 727 541 698 541C669 541 640 541 611 541C582 541 553 541 523.8 541C494.7 541 465.3 541 436.2 541C407 541 378 541 349 541C320 541 291 541 262 541C233 541 204 541 174.8 541C145.7 541 116.3 541 87.2 541C58 541 29 541 14.5 541L0 541Z" fill="#fa7268"></path><path d="M0 211L14.5 202.7C29 194.3 58 177.7 87.2 176.5C116.3 175.3 145.7 189.7 174.8 190.3C204 191 233 178 262 183.2C291 188.3 320 211.7 349 212.2C378 212.7 407 190.3 436.2 185C465.3 179.7 494.7 191.3 523.8 196.3C553 201.3 582 199.7 611 191.7C640 183.7 669 169.3 698 172.7C727 176 756 197 785.2 205.5C814.3 214 843.7 210 872.8 203.7C902 197.3 931 188.7 945.5 184.3L960 180L960 541L945.5 541C931 541 902 541 872.8 541C843.7 541 814.3 541 785.2 541C756 541 727 541 698 541C669 541 640 541 611 541C582 541 553 541 523.8 541C494.7 541 465.3 541 436.2 541C407 541 378 541 349 541C320 541 291 541 262 541C233 541 204 541 174.8 541C145.7 541 116.3 541 87.2 541C58 541 29 541 14.5 541L0 541Z" fill="#f56a67"></path><path d="M0 252L14.5 247.8C29 243.7 58 235.3 87.2 230.7C116.3 226 145.7 225 174.8 221.3C204 217.7 233 211.3 262 214C291 216.7 320 228.3 349 226.7C378 225 407 210 436.2 205.8C465.3 201.7 494.7 208.3 523.8 220.7C553 233 582 251 611 256.7C640 262.3 669 255.7 698 248.5C727 241.3 756 233.7 785.2 225.7C814.3 217.7 843.7 209.3 872.8 215.2C902 221 931 241 945.5 251L960 261L960 541L945.5 541C931 541 902 541 872.8 541C843.7 541 814.3 541 785.2 541C756 541 727 541 698 541C669 541 640 541 611 541C582 541 553 541 523.8 541C494.7 541 465.3 541 436.2 541C407 541 378 541 349 541C320 541 291 541 262 541C233 541 204 541 174.8 541C145.7 541 116.3 541 87.2 541C58 541 29 541 14.5 541L0 541Z" fill="#f06167"></path><path d="M0 239L14.5 249.5C29 260 58 281 87.2 290.7C116.3 300.3 145.7 298.7 174.8 298.3C204 298 233 299 262 294.7C291 290.3 320 280.7 349 270.7C378 260.7 407 250.3 436.2 247C465.3 243.7 494.7 247.3 523.8 255.2C553 263 582 275 611 283C640 291 669 295 698 295.7C727 296.3 756 293.7 785.2 288.8C814.3 284 843.7 277 872.8 277.5C902 278 931 286 945.5 290L960 294L960 541L945.5 541C931 541 902 541 872.8 541C843.7 541 814.3 541 785.2 541C756 541 727 541 698 541C669 541 640 541 611 541C582 541 553 541 523.8 541C494.7 541 465.3 541 436.2 541C407 541 378 541 349 541C320 541 291 541 262 541C233 541 204 541 174.8 541C145.7 541 116.3 541 87.2 541C58 541 29 541 14.5 541L0 541Z" fill="#eb5967"></path><path d="M0 305L14.5 302.5C29 300 58 295 87.2 294.7C116.3 294.3 145.7 298.7 174.8 302C204 305.3 233 307.7 262 310C291 312.3 320 314.7 349 313.7C378 312.7 407 308.3 436.2 307.5C465.3 306.7 494.7 309.3 523.8 307C553 304.7 582 297.3 611 301.2C640 305 669 320 698 318.3C727 316.7 756 298.3 785.2 297.7C814.3 297 843.7 314 872.8 323.5C902 333 931 335 945.5 336L960 337L960 541L945.5 541C931 541 902 541 872.8 541C843.7 541 814.3 541 785.2 541C756 541 727 541 698 541C669 541 640 541 611 541C582 541 553 541 523.8 541C494.7 541 465.3 541 436.2 541C407 541 378 541 349 541C320 541 291 541 262 541C233 541 204 541 174.8 541C145.7 541 116.3 541 87.2 541C58 541 29 541 14.5 541L0 541Z" fill="#e65067"></path><path d="M0 371L14.5 364.2C29 357.3 58 343.7 87.2 340.8C116.3 338 145.7 346 174.8 348.5C204 351 233 348 262 343.7C291 339.3 320 333.7 349 335.8C378 338 407 348 436.2 354.8C465.3 361.7 494.7 365.3 523.8 362.5C553 359.7 582 350.3 611 342.7C640 335 669 329 698 326.5C727 324 756 325 785.2 323.7C814.3 322.3 843.7 318.7 872.8 320.2C902 321.7 931 328.3 945.5 331.7L960 335L960 541L945.5 541C931 541 902 541 872.8 541C843.7 541 814.3 541 785.2 541C756 541 727 541 698 541C669 541 640 541 611 541C582 541 553 541 523.8 541C494.7 541 465.3 541 436.2 541C407 541 378 541 349 541C320 541 291 541 262 541C233 541 204 541 174.8 541C145.7 541 116.3 541 87.2 541C58 541 29 541 14.5 541L0 541Z" fill="#e04867"></path><path d="M0 373L14.5 378C29 383 58 393 87.2 390.2C116.3 387.3 145.7 371.7 174.8 367.5C204 363.3 233 370.7 262 373.8C291 377 320 376 349 378.2C378 380.3 407 385.7 436.2 387.5C465.3 389.3 494.7 387.7 523.8 388.3C553 389 582 392 611 390.3C640 388.7 669 382.3 698 382.8C727 383.3 756 390.7 785.2 392.3C814.3 394 843.7 390 872.8 383C902 376 931 366 945.5 361L960 356L960 541L945.5 541C931 541 902 541 872.8 541C843.7 541 814.3 541 785.2 541C756 541 727 541 698 541C669 541 640 541 611 541C582 541 553 541 523.8 541C494.7 541 465.3 541 436.2 541C407 541 378 541 349 541C320 541 291 541 262 541C233 541 204 541 174.8 541C145.7 541 116.3 541 87.2 541C58 541 29 541 14.5 541L0 541Z" fill="#da3f67"></path><path d="M0 423L14.5 419.7C29 416.3 58 409.7 87.2 408.8C116.3 408 145.7 413 174.8 417.7C204 422.3 233 426.7 262 428.3C291 430 320 429 349 426.5C378 424 407 420 436.2 417.3C465.3 414.7 494.7 413.3 523.8 409.8C553 406.3 582 400.7 611 404.2C640 407.7 669 420.3 698 421.5C727 422.7 756 412.3 785.2 409.7C814.3 407 843.7 412 872.8 412.3C902 412.7 931 408.3 945.5 406.2L960 404L960 541L945.5 541C931 541 902 541 872.8 541C843.7 541 814.3 541 785.2 541C756 541 727 541 698 541C669 541 640 541 611 541C582 541 553 541 523.8 541C494.7 541 465.3 541 436.2 541C407 541 378 541 349 541C320 541 291 541 262 541C233 541 204 541 174.8 541C145.7 541 116.3 541 87.2 541C58 541 29 541 14.5 541L0 541Z" fill="#d43667"></path><path d="M0 440L14.5 441.3C29 442.7 58 445.3 87.2 446.3C116.3 447.3 145.7 446.7 174.8 450.3C204 454 233 462 262 464C291 466 320 462 349 459.5C378 457 407 456 436.2 455.8C465.3 455.7 494.7 456.3 523.8 456.2C553 456 582 455 611 456.2C640 457.3 669 460.7 698 461.2C727 461.7 756 459.3 785.2 456.7C814.3 454 843.7 451 872.8 448.2C902 445.3 931 442.7 945.5 441.3L960 440L960 541L945.5 541C931 541 902 541 872.8 541C843.7 541 814.3 541 785.2 541C756 541 727 541 698 541C669 541 640 541 611 541C582 541 553 541 523.8 541C494.7 541 465.3 541 436.2 541C407 541 378 541 349 541C320 541 291 541 262 541C233 541 204 541 174.8 541C145.7 541 116.3 541 87.2 541C58 541 29 541 14.5 541L0 541Z" fill="#cd2d68"></path><path d="M0 498L14.5 495.3C29 492.7 58 487.3 87.2 486C116.3 484.7 145.7 487.3 174.8 488C204 488.7 233 487.3 262 485.2C291 483 320 480 349 481C378 482 407 487 436.2 487.5C465.3 488 494.7 484 523.8 481.8C553 479.7 582 479.3 611 481.2C640 483 669 487 698 486.3C727 485.7 756 480.3 785.2 481.7C814.3 483 843.7 491 872.8 493.7C902 496.3 931 493.7 945.5 492.3L960 491L960 541L945.5 541C931 541 902 541 872.8 541C843.7 541 814.3 541 785.2 541C756 541 727 541 698 541C669 541 640 541 611 541C582 541 553 541 523.8 541C494.7 541 465.3 541 436.2 541C407 541 378 541 349 541C320 541 291 541 262 541C233 541 204 541 174.8 541C145.7 541 116.3 541 87.2 541C58 541 29 541 14.5 541L0 541Z" fill="#c62368"></path></svg>